<svg xmlns:xlink="http://www.w3.org/1999/xlink" version="1.1" class="highcharts-root" style="font-family:&quot;Lucida Grande&quot;, &quot;Lucida Sans Unicode&quot;, Arial, Helvetica, sans-serif;font-size:12px;" xmlns="http://www.w3.org/2000/svg" width="700" height="540" viewBox="0 0 700 540" aria-hidden="false" aria-label="Interactive chart"><desc aria-hidden="true">Created with Highcharts 8.2.2</desc><defs aria-hidden="true"><clipPath id="highcharts-vsbvs85-1935-"><rect x="0" y="0" width="610" height="320" fill="none"></rect></clipPath></defs><rect fill="#fff" class="highcharts-background" x="0" y="0" width="700" height="540" rx="0" ry="0" aria-hidden="true"></rect><rect fill="none" class="highcharts-plot-background" x="50" y="100" width="610" height="320" aria-hidden="true"></rect><g class="highcharts-pane-group" data-z-index="0" aria-hidden="true"></g><g class="highcharts-plot-bands-0" data-z-index="0" aria-hidden="true"><path fill="rgb(222, 222, 222)" class="highcharts-plot-band " d="M 50.5 100 L 50.5 420 L 55.5 420 L 55.5 100 Z"></path><path fill="rgb(222, 222, 222)" class="highcharts-plot-band " d="M 240.5 100 L 240.5 420 L 286.5 420 L 286.5 100 Z"></path><path fill="rgb(222, 222, 222)" class="highcharts-plot-band " d="M 610.5 100 L 610.5 420 L 615.5 420 L 615.5 100 Z"></path></g><g class="highcharts-plot-lines-0" data-z-index="0" aria-hidden="true"><path fill="none" class="highcharts-plot-line " stroke="#c0c0c0" stroke-width="1" stroke-dasharray="none"></path></g><g class="highcharts-grid highcharts-xaxis-grid" data-z-index="1" aria-hidden="true"><path fill="none" data-z-index="1" class="highcharts-grid-line" d="M 50.5 100 L 50.5 420" opacity="1"></path><path fill="none" data-z-index="1" class="highcharts-grid-line" d="M 111.5 100 L 111.5 420" opacity="1"></path><path fill="none" data-z-index="1" class="highcharts-grid-line" d="M 172.5 100 L 172.5 420" opacity="1"></path><path fill="none" data-z-index="1" class="highcharts-grid-line" d="M 233.5 100 L 233.5 420" opacity="1"></path><path fill="none" data-z-index="1" class="highcharts-grid-line" d="M 293.5 100 L 293.5 420" opacity="1"></path><path fill="none" data-z-index="1" class="highcharts-grid-line" d="M 354.5 100 L 354.5 420" opacity="1"></path><path fill="none" data-z-index="1" class="highcharts-grid-line" d="M 415.5 100 L 415.5 420" opacity="1"></path><path fill="none" data-z-index="1" class="highcharts-grid-line" d="M 475.5 100 L 475.5 420" opacity="1"></path><path fill="none" data-z-index="1" class="highcharts-grid-line" d="M 536.5 100 L 536.5 420" opacity="1"></path><path fill="none" data-z-index="1" class="highcharts-grid-line" d="M 597.5 100 L 597.5 420" opacity="1"></path><path fill="none" data-z-index="1" class="highcharts-grid-line" d="M 658.5 100 L 658.5 420" opacity="1"></path></g><g class="highcharts-grid highcharts-yaxis-grid" data-z-index="1" aria-hidden="true"><path fill="none" stroke="#c0c0c0" stroke-width="1" stroke-dasharray="1,3" data-z-index="1" class="highcharts-grid-line" d="M 50 420.5 L 660 420.5" opacity="1"></path><path fill="none" stroke="#c0c0c0" stroke-width="1" stroke-dasharray="1,3" data-z-index="1" class="highcharts-grid-line" d="M 50 380.5 L 660 380.5" opacity="1"></path><path fill="none" stroke="#c0c0c0" stroke-width="1" stroke-dasharray="1,3" data-z-index="1" class="highcharts-grid-line" d="M 50 340.5 L 660 340.5" opacity="1"></path><path fill="none" stroke="#c0c0c0" stroke-width="1" stroke-dasharray="1,3" data-z-index="1" class="highcharts-grid-line" d="M 50 300.5 L 660 300.5" opacity="1"></path><path fill="none" stroke="#c0c0c0" stroke-width="1" stroke-dasharray="1,3" data-z-index="1" class="highcharts-grid-line" d="M 50 260.5 L 660 260.5" opacity="1"></path><path fill="none" stroke="#c0c0c0" stroke-width="1" stroke-dasharray="1,3" data-z-index="1" class="highcharts-grid-line" d="M 50 220.5 L 660 220.5" opacity="1"></path><path fill="none" stroke="#c0c0c0" stroke-width="1" stroke-dasharray="1,3" data-z-index="1" class="highcharts-grid-line" d="M 50 180.5 L 660 180.5" opacity="1"></path><path fill="none" stroke="#c0c0c0" stroke-width="1" stroke-dasharray="1,3" data-z-index="1" class="highcharts-grid-line" d="M 50 140.5 L 660 140.5" opacity="1"></path><path fill="none" stroke="#c0c0c0" stroke-width="1" stroke-dasharray="1,3" data-z-index="1" class="highcharts-grid-line" d="M 50 99.5 L 660 99.5" opacity="1"></path></g><rect fill="none" class="highcharts-plot-border" data-z-index="1" stroke="none" stroke-width="1" x="49.5" y="99.5" width="611" height="321" aria-hidden="true"></rect><g class="highcharts-axis highcharts-xaxis" data-z-index="2" aria-hidden="true"><path fill="none" class="highcharts-axis-line" stroke="gray" stroke-width="1.2" data-z-index="7" d="M 50 420.6 L 660 420.6"></path></g><g class="highcharts-axis highcharts-yaxis" data-z-index="2" aria-hidden="true"><path fill="none" class="highcharts-tick" stroke="#ccd6eb" stroke-width="1" d="M 50 420.5 L 40 420.5" opacity="1"></path><path fill="none" class="highcharts-tick" stroke="#ccd6eb" stroke-width="1" d="M 50 380.5 L 40 380.5" opacity="1"></path><path fill="none" class="highcharts-tick" stroke="#ccd6eb" stroke-width="1" d="M 50 340.5 L 40 340.5" opacity="1"></path><path fill="none" class="highcharts-tick" stroke="#ccd6eb" stroke-width="1" d="M 50 300.5 L 40 300.5" opacity="1"></path><path fill="none" class="highcharts-tick" stroke="#ccd6eb" stroke-width="1" d="M 50 260.5 L 40 260.5" opacity="1"></path><path fill="none" class="highcharts-tick" stroke="#ccd6eb" stroke-width="1" d="M 50 220.5 L 40 220.5" opacity="1"></path><path fill="none" class="highcharts-tick" stroke="#ccd6eb" stroke-width="1" d="M 50 180.5 L 40 180.5" opacity="1"></path><path fill="none" class="highcharts-tick" stroke="#ccd6eb" stroke-width="1" d="M 50 140.5 L 40 140.5" opacity="1"></path><path fill="none" class="highcharts-tick" stroke="#ccd6eb" stroke-width="1" d="M 50 99.5 L 40 99.5" opacity="1"></path><text x="65" data-z-index="7" text-anchor="end" transform="translate(0,0)" class="highcharts-axis-title" style="color:#000000;font-family:Calibri, Verdana, Arial, Helvetica, sans-serif;font-weight:normal;background-color:#fff;font-size:13px;fill:#000000;" y="85"><tspan>Percent</tspan></text><path fill="none" class="highcharts-axis-line" stroke="gray" stroke-width="1" data-z-index="7" d="M 49.5 100 L 49.5 420"></path></g><g class="highcharts-series-group" data-z-index="3" aria-hidden="false"><g class="highcharts-series highcharts-series-0 highcharts-line-series" data-z-index="0.1" opacity="1" transform="translate(50,100) scale(1 1)" clip-path="url(#highcharts-vsbvs85-1935-)" aria-hidden="false"><path fill="none" d="M 1.2655601659751 50 L 3.7966804979253 55.99999999999994 L 6.3278008298755 60 L 8.8589211618257 62 L 11.390041493776 65.99999999999994 L 13.921161825726 60 L 16.452282157676 64.00000000000006 L 18.983402489627 65.99999999999994 L 21.514522821577 62 L 24.045643153527 65.99999999999994 L 26.576763485477 65.99999999999994 L 29.107883817427 65.99999999999994 L 31.639004149378 60 L 34.170124481328 65.99999999999994 L 36.701244813278 70 L 39.232365145228 72.00000000000003 L 41.763485477178 70 L 44.294605809129 70 L 46.825726141079 72.00000000000003 L 49.356846473029 72.00000000000003 L 51.887966804979 74.00000000000006 L 54.419087136929 74.00000000000006 L 56.95020746888 77.99999999999997 L 59.48132780083 77.99999999999997 L 62.01244813278 80 L 64.54356846473 77.99999999999997 L 67.07468879668 74.00000000000006 L 69.605809128631 75.99999999999994 L 72.136929460581 74.00000000000006 L 74.668049792531 74.00000000000006 L 77.199170124481 75.99999999999994 L 79.730290456432 74.00000000000006 L 82.261410788382 74.00000000000006 L 84.792531120332 72.00000000000003 L 87.323651452282 70 L 89.854771784232 72.00000000000003 L 92.385892116183 74.00000000000006 L 94.917012448133 74.00000000000006 L 97.448132780083 70 L 99.979253112033 72.00000000000003 L 102.51037344398 72.00000000000003 L 105.04149377593 72.00000000000003 L 107.57261410788 72.00000000000003 L 110.10373443983 65.99999999999994 L 112.63485477178 64.00000000000006 L 115.16597510373 65.99999999999994 L 117.69709543568 64.00000000000006 L 120.22821576763 62 L 122.75933609959 64.00000000000006 L 125.29045643154 64.00000000000006 L 127.82157676349 65.99999999999994 L 130.35269709544 64.00000000000006 L 132.88381742739 62 L 135.41493775934 60 L 137.94605809129 58 L 140.47717842324 60 L 143.00829875519 58 L 145.53941908714 58 L 148.07053941909 60 L 150.60165975104 58 L 153.13278008299 58 L 155.66390041494 54.00000000000006 L 158.19502074689 54.00000000000006 L 160.72614107884 52 L 163.25726141079 54.00000000000006 L 165.78838174274 54.00000000000006 L 168.31950207469 54.00000000000006 L 170.85062240664 60 L 173.38174273859 60 L 175.91286307054 60 L 178.44398340249 62 L 180.97510373444 65.99999999999994 L 183.50622406639 62 L 186.03734439834 65.99999999999994 L 188.56846473029 62 L 191.09958506224 65.99999999999994 L 193.63070539419 62 L 196.16182572614 64.00000000000006 L 198.69294605809 65.99999999999994 L 201.22406639004 65.99999999999994 L 203.75518672199 70 L 206.28630705394 72.00000000000003 L 208.81742738589 75.99999999999994 L 211.34854771784 80 L 213.87966804979 82.00000000000003 L 216.41078838174 85.99999999999994 L 218.94190871369 92.00000000000003 L 221.47302904564 100 L 224.00414937759 107.99999999999997 L 226.53526970954 114.00000000000006 L 229.06639004149 122.00000000000003 L 231.59751037344 124.00000000000006 L 234.12863070539 127.99999999999997 L 236.65975103734 132.00000000000003 L 239.19087136929 134.00000000000006 L 241.72199170124 137.99999999999997 L 244.2531120332 145.99999999999994 L 246.78423236515 150 L 249.3153526971 147.99999999999997 L 251.84647302905 154.00000000000006 L 254.377593361 150 L 256.90871369295 150 L 259.4398340249 150 L 261.97095435685 145.99999999999994 L 264.5020746888 147.99999999999997 L 267.03319502075 150 L 269.5643153527 150 L 272.09543568465 147.99999999999997 L 274.6265560166 150 L 277.15767634855 154.00000000000006 L 279.6887966805 155.99999999999994 L 282.21991701245 154.00000000000006 L 284.7510373444 154.00000000000006 L 287.28215767635 152.00000000000003 L 289.8132780083 152.00000000000003 L 292.34439834025 152.00000000000003 L 294.8755186722 154.00000000000006 L 297.40663900415 155.99999999999994 L 299.9377593361 155.99999999999994 L 302.46887966805 154.00000000000006 L 305 152.00000000000003 L 307.53112033195 152.00000000000003 L 310.0622406639 147.99999999999997 L 312.59336099585 147.99999999999997 L 315.1244813278 152.00000000000003 L 317.65560165975 150 L 320.1867219917 150 L 322.71784232365 152.00000000000003 L 325.2489626556 150 L 327.78008298755 147.99999999999997 L 330.3112033195 150 L 332.84232365145 152.00000000000003 L 335.3734439834 145.99999999999994 L 337.90456431535 144.00000000000006 L 340.4356846473 145.99999999999994 L 342.96680497925 145.99999999999994 L 345.4979253112 147.99999999999997 L 348.02904564315 147.99999999999997 L 350.5601659751 150 L 353.09128630705 147.99999999999997 L 355.622406639 147.99999999999997 L 358.15352697095 147.99999999999997 L 360.6846473029 145.99999999999994 L 363.21576763485 145.99999999999994 L 365.7468879668 145.99999999999994 L 368.27800829876 154.00000000000006 L 370.80912863071 147.99999999999997 L 373.34024896266 145.99999999999994 L 375.87136929461 144.00000000000006 L 378.40248962656 145.99999999999994 L 380.93360995851 142.00000000000003 L 383.46473029046 142.00000000000003 L 385.99585062241 142.00000000000003 L 388.52697095436 140 L 391.05809128631 140 L 393.58921161826 140 L 396.12033195021 137.99999999999997 L 398.65145228216 134.00000000000006 L 401.18257261411 135.99999999999994 L 403.71369294606 134.00000000000006 L 406.24481327801 134.00000000000006 L 408.77593360996 135.99999999999994 L 411.30705394191 135.99999999999994 L 413.83817427386 134.00000000000006 L 416.36929460581 132.00000000000003 L 418.90041493776 132.00000000000003 L 421.43153526971 134.00000000000006 L 423.96265560166 132.00000000000003 L 426.49377593361 135.99999999999994 L 429.02489626556 134.00000000000006 L 431.55601659751 132.00000000000003 L 434.08713692946 127.99999999999997 L 436.61825726141 125.99999999999994 L 439.14937759336 124.00000000000006 L 441.68049792531 124.00000000000006 L 444.21161825726 125.99999999999994 L 446.74273858921 125.99999999999994 L 449.27385892116 125.99999999999994 L 451.80497925311 124.00000000000006 L 454.33609958506 124.00000000000006 L 456.86721991701 125.99999999999994 L 459.39834024896 125.99999999999994 L 461.92946058091 125.99999999999994 L 464.46058091286 125.99999999999994 L 466.99170124481 122.00000000000003 L 469.52282157676 122.00000000000003 L 472.05394190871 115.99999999999994 L 474.58506224066 115.99999999999994 L 477.11618257261 117.99999999999997 L 479.64730290456 117.99999999999997 L 482.17842323651 115.99999999999994 L 484.70954356846 117.99999999999997 L 487.24066390041 112.00000000000003 L 489.77178423237 117.99999999999997 L 492.30290456432 117.99999999999997 L 494.83402489627 117.99999999999997 L 497.36514522822 115.99999999999994 L 499.89626556017 112.00000000000003 L 502.42738589212 112.00000000000003 L 504.95850622407 112.00000000000003 L 507.48962655602 110 L 510.02074688797 110 L 512.55186721992 107.99999999999997 L 515.08298755187 114.00000000000006 L 517.61410788382 112.00000000000003 L 520.14522821577 110 L 522.67634854772 110 L 525.20746887967 110 L 527.73858921162 105.99999999999994 L 530.26970954357 105.99999999999994 L 532.80082987552 105.99999999999994 L 535.33195020747 107.99999999999997 L 537.86307053942 107.99999999999997 L 540.39419087137 105.99999999999994 L 542.92531120332 104.00000000000006 L 545.45643153527 104.00000000000006 L 547.98755186722 102.00000000000003 L 550.51867219917 102.00000000000003 L 553.04979253112 100 L 555.58091286307 100 L 558.11203319502 97.99999999999997 L 560.64315352697 97.99999999999997 L 563.17427385892 122.00000000000003 L 565.70539419087 294.00000000000006 L 568.23651452282 264.00000000000006 L 570.76763485477 227.99999999999997 L 573.29875518672 215.99999999999994 L 575.82987551867 190 L 578.36099585062 187.99999999999997 L 580.89211618257 172.00000000000003 L 583.42323651452 172.00000000000003 L 585.95435684647 172.00000000000003 L 588.48547717842 170 L 591.01659751037 167.99999999999997 L 593.54771784232 164.00000000000006 L 596.07883817427 162.00000000000003 L 598.60995850622 160 L 601.14107883817 160 L 603.67219917012 152.00000000000003 L 606.20331950207 150 L 608.73443983402 145.99999999999994" class="highcharts-graph" data-z-index="1" stroke="#910000" stroke-width="1.5" stroke-dasharray="none" aria-hidden="false" role="region" tabindex="-1" aria-label="Total, line 1 of 8 with 241 data points." style="outline: 0px;"></path></g><g class="highcharts-markers highcharts-series-0 highcharts-line-series" data-z-index="0.1" opacity="1" transform="translate(50,100) scale(1 1)" clip-path="none" aria-hidden="true"></g><g class="highcharts-series highcharts-series-1 highcharts-line-series" visibility="hidden" data-z-index="0.1" opacity="1" transform="translate(50,100) scale(1 1)" clip-path="url(#highcharts-vsbvs85-1935-)" aria-hidden="true"><path fill="none" d="M 1.2655601659751 -144.00000000000006 L 3.7966804979253 -135.99999999999994 L 6.3278008298755 -131.9999999999999 L 8.8589211618257 -131.9999999999999 L 11.390041493776 -125.99999999999994 L 13.921161825726 -130 L 16.452282157676 -128.0000000000001 L 18.983402489627 -128.0000000000001 L 21.514522821577 -134.00000000000006 L 24.045643153527 -128.0000000000001 L 26.576763485477 -128.0000000000001 L 29.107883817427 -128.0000000000001 L 31.639004149378 -131.9999999999999 L 34.170124481328 -124.00000000000006 L 36.701244813278 -115.99999999999994 L 39.232365145228 -114.00000000000006 L 41.763485477178 -111.99999999999989 L 44.294605809129 -118.00000000000011 L 46.825726141079 -115.99999999999994 L 49.356846473029 -115.99999999999994 L 51.887966804979 -111.99999999999989 L 54.419087136929 -108.00000000000011 L 56.95020746888 -108.00000000000011 L 59.48132780083 -108.00000000000011 L 62.01244813278 -114.00000000000006 L 64.54356846473 -111.99999999999989 L 67.07468879668 -115.99999999999994 L 69.605809128631 -118.00000000000011 L 72.136929460581 -121.99999999999989 L 74.668049792531 -118.00000000000011 L 77.199170124481 -115.99999999999994 L 79.730290456432 -114.00000000000006 L 82.261410788382 -114.00000000000006 L 84.792531120332 -120 L 87.323651452282 -121.99999999999989 L 89.854771784232 -121.99999999999989 L 92.385892116183 -118.00000000000011 L 94.917012448133 -118.00000000000011 L 97.448132780083 -121.99999999999989 L 99.979253112033 -120 L 102.51037344398 -118.00000000000011 L 105.04149377593 -121.99999999999989 L 107.57261410788 -124.00000000000006 L 110.10373443983 -130 L 112.63485477178 -134.00000000000006 L 115.16597510373 -134.00000000000006 L 117.69709543568 -134.00000000000006 L 120.22821576763 -135.99999999999994 L 122.75933609959 -130 L 125.29045643154 -130 L 127.82157676349 -125.99999999999994 L 130.35269709544 -128.0000000000001 L 132.88381742739 -135.99999999999994 L 135.41493775934 -135.99999999999994 L 137.94605809129 -138.0000000000001 L 140.47717842324 -138.0000000000001 L 143.00829875519 -135.99999999999994 L 145.53941908714 -135.99999999999994 L 148.07053941909 -128.0000000000001 L 150.60165975104 -134.00000000000006 L 153.13278008299 -141.9999999999999 L 155.66390041494 -140 L 158.19502074689 -140 L 160.72614107884 -144.00000000000006 L 163.25726141079 -141.9999999999999 L 165.78838174274 -140 L 168.31950207469 -141.9999999999999 L 170.85062240664 -140 L 173.38174273859 -138.0000000000001 L 175.91286307054 -135.99999999999994 L 178.44398340249 -131.9999999999999 L 180.97510373444 -130 L 183.50622406639 -130 L 186.03734439834 -125.99999999999994 L 188.56846473029 -134.00000000000006 L 191.09958506224 -130 L 193.63070539419 -134.00000000000006 L 196.16182572614 -131.9999999999999 L 198.69294605809 -128.0000000000001 L 201.22406639004 -124.00000000000006 L 203.75518672199 -118.00000000000011 L 206.28630705394 -115.99999999999994 L 208.81742738589 -114.00000000000006 L 211.34854771784 -108.00000000000011 L 213.87966804979 -101.99999999999989 L 216.41078838174 -95.99999999999994 L 218.94190871369 -88.00000000000011 L 221.47302904564 -75.99999999999994 L 224.00414937759 -65.99999999999994 L 226.53526970954 -55.99999999999994 L 229.06639004149 -44.00000000000006 L 231.59751037344 -41.999999999999886 L 234.12863070539 -35.99999999999994 L 236.65975103734 -34.00000000000006 L 239.19087136929 -30 L 241.72199170124 -25.999999999999943 L 244.2531120332 -20 L 246.78423236515 -15.999999999999943 L 249.3153526971 -15.999999999999943 L 251.84647302905 -8.000000000000114 L 254.377593361 -10 L 256.90871369295 -10 L 259.4398340249 -14.000000000000057 L 261.97095435685 -21.999999999999886 L 264.5020746888 -21.999999999999886 L 267.03319502075 -20 L 269.5643153527 -20 L 272.09543568465 -21.999999999999886 L 274.6265560166 -20 L 277.15767634855 -15.999999999999943 L 279.6887966805 -8.000000000000114 L 282.21991701245 -14.000000000000057 L 284.7510373444 -14.000000000000057 L 287.28215767635 -18.000000000000114 L 289.8132780083 -18.000000000000114 L 292.34439834025 -18.000000000000114 L 294.8755186722 -20 L 297.40663900415 -15.999999999999943 L 299.9377593361 -15.999999999999943 L 302.46887966805 -20 L 305 -20 L 307.53112033195 -20 L 310.0622406639 -28.000000000000114 L 312.59336099585 -30 L 315.1244813278 -31.999999999999886 L 317.65560165975 -31.999999999999886 L 320.1867219917 -30 L 322.71784232365 -28.000000000000114 L 325.2489626556 -30 L 327.78008298755 -28.000000000000114 L 330.3112033195 -28.000000000000114 L 332.84232365145 -25.999999999999943 L 335.3734439834 -31.999999999999886 L 337.90456431535 -35.99999999999994 L 340.4356846473 -34.00000000000006 L 342.96680497925 -34.00000000000006 L 345.4979253112 -31.999999999999886 L 348.02904564315 -34.00000000000006 L 350.5601659751 -31.999999999999886 L 353.09128630705 -30 L 355.622406639 -30 L 358.15352697095 -30 L 360.6846473029 -30 L 363.21576763485 -24.000000000000057 L 365.7468879668 -25.999999999999943 L 368.27800829876 -18.000000000000114 L 370.80912863071 -28.000000000000114 L 373.34024896266 -30 L 375.87136929461 -30 L 378.40248962656 -28.000000000000114 L 380.93360995851 -35.99999999999994 L 383.46473029046 -31.999999999999886 L 385.99585062241 -31.999999999999886 L 388.52697095436 -38.000000000000114 L 391.05809128631 -38.000000000000114 L 393.58921161826 -40 L 396.12033195021 -41.999999999999886 L 398.65145228216 -41.999999999999886 L 401.18257261411 -35.99999999999994 L 403.71369294606 -41.999999999999886 L 406.24481327801 -41.999999999999886 L 408.77593360996 -41.999999999999886 L 411.30705394191 -41.999999999999886 L 413.83817427386 -44.00000000000006 L 416.36929460581 -45.99999999999994 L 418.90041493776 -44.00000000000006 L 421.43153526971 -45.99999999999994 L 423.96265560166 -44.00000000000006 L 426.49377593361 -41.999999999999886 L 429.02489626556 -41.999999999999886 L 431.55601659751 -38.000000000000114 L 434.08713692946 -44.00000000000006 L 436.61825726141 -48.000000000000114 L 439.14937759336 -51.999999999999886 L 441.68049792531 -54.00000000000006 L 444.21161825726 -51.999999999999886 L 446.74273858921 -48.000000000000114 L 449.27385892116 -51.999999999999886 L 451.80497925311 -50 L 454.33609958506 -50 L 456.86721991701 -48.000000000000114 L 459.39834024896 -48.000000000000114 L 461.92946058091 -48.000000000000114 L 464.46058091286 -48.000000000000114 L 466.99170124481 -54.00000000000006 L 469.52282157676 -51.999999999999886 L 472.05394190871 -51.999999999999886 L 474.58506224066 -58.000000000000114 L 477.11618257261 -54.00000000000006 L 479.64730290456 -54.00000000000006 L 482.17842323651 -54.00000000000006 L 484.70954356846 -54.00000000000006 L 487.24066390041 -61.999999999999886 L 489.77178423237 -55.99999999999994 L 492.30290456432 -55.99999999999994 L 494.83402489627 -58.000000000000114 L 497.36514522822 -58.000000000000114 L 499.89626556017 -65.99999999999994 L 502.42738589212 -64.00000000000006 L 504.95850622407 -64.00000000000006 L 507.48962655602 -64.00000000000006 L 510.02074688797 -60 L 512.55186721992 -60 L 515.08298755187 -58.000000000000114 L 517.61410788382 -58.000000000000114 L 520.14522821577 -58.000000000000114 L 522.67634854772 -60 L 525.20746887967 -58.000000000000114 L 527.73858921162 -61.999999999999886 L 530.26970954357 -65.99999999999994 L 532.80082987552 -64.00000000000006 L 535.33195020747 -61.999999999999886 L 537.86307053942 -64.00000000000006 L 540.39419087137 -61.999999999999886 L 542.92531120332 -64.00000000000006 L 545.45643153527 -64.00000000000006 L 547.98755186722 -65.99999999999994 L 550.51867219917 -64.00000000000006 L 553.04979253112 -65.99999999999994 L 555.58091286307 -65.99999999999994 L 558.11203319502 -68.00000000000011 L 560.64315352697 -65.99999999999994 L 563.17427385892 -40 L 565.70539419087 127.99999999999997 L 568.23651452282 100 L 570.76763485477 67.99999999999997 L 573.29875518672 58 L 575.82987551867 30 L 578.36099585062 24.000000000000057 L 580.89211618257 14.000000000000057 L 583.42323651452 18.000000000000114 L 585.95435684647 14.000000000000057 L 588.48547717842 10 L 591.01659751037 10 L 593.54771784232 11.999999999999886 L 596.07883817427 10 L 598.60995850622 10 L 601.14107883817 8.000000000000114 L 603.67219917012 0 L 606.20331950207 -5.999999999999943 L 608.73443983402 -14.000000000000057" class="highcharts-graph" data-z-index="1" stroke="#2f7ed8" stroke-width="1.5" stroke-dasharray="none" aria-hidden="true"></path></g><g class="highcharts-markers highcharts-series-1 highcharts-line-series" visibility="hidden" data-z-index="0.1" opacity="1" transform="translate(50,100) scale(1 1)" clip-path="none" aria-hidden="true"></g><g class="highcharts-series highcharts-series-2 highcharts-line-series" visibility="hidden" data-z-index="0.1" opacity="1" transform="translate(50,100) scale(1 1)" clip-path="url(#highcharts-vsbvs85-1935-)" aria-hidden="true"><path fill="none" d="M 1.2655601659751 164.00000000000006 L 3.7966804979253 165.99999999999994 L 6.3278008298755 167.99999999999997 L 8.8589211618257 170 L 11.390041493776 172.00000000000003 L 13.921161825726 164.00000000000006 L 16.452282157676 170 L 18.983402489627 172.00000000000003 L 21.514522821577 172.00000000000003 L 24.045643153527 172.00000000000003 L 26.576763485477 174.00000000000006 L 29.107883817427 170 L 31.639004149378 167.99999999999997 L 34.170124481328 170 L 36.701244813278 170 L 39.232365145228 172.00000000000003 L 41.763485477178 164.00000000000006 L 44.294605809129 170 L 46.825726141079 167.99999999999997 L 49.356846473029 167.99999999999997 L 51.887966804979 167.99999999999997 L 54.419087136929 162.00000000000003 L 56.95020746888 170 L 59.48132780083 172.00000000000003 L 62.01244813278 177.99999999999997 L 64.54356846473 174.00000000000006 L 67.07468879668 174.00000000000006 L 69.605809128631 175.99999999999994 L 72.136929460581 177.99999999999997 L 74.668049792531 172.00000000000003 L 77.199170124481 174.00000000000006 L 79.730290456432 172.00000000000003 L 82.261410788382 170 L 84.792531120332 172.00000000000003 L 87.323651452282 170 L 89.854771784232 172.00000000000003 L 92.385892116183 174.00000000000006 L 94.917012448133 174.00000000000006 L 97.448132780083 172.00000000000003 L 99.979253112033 172.00000000000003 L 102.51037344398 170 L 105.04149377593 172.00000000000003 L 107.57261410788 172.00000000000003 L 110.10373443983 170 L 112.63485477178 167.99999999999997 L 115.16597510373 170 L 117.69709543568 167.99999999999997 L 120.22821576763 165.99999999999994 L 122.75933609959 164.00000000000006 L 125.29045643154 164.00000000000006 L 127.82157676349 165.99999999999994 L 130.35269709544 164.00000000000006 L 132.88381742739 165.99999999999994 L 135.41493775934 164.00000000000006 L 137.94605809129 164.00000000000006 L 140.47717842324 164.00000000000006 L 143.00829875519 160 L 145.53941908714 157.99999999999997 L 148.07053941909 155.99999999999994 L 150.60165975104 155.99999999999994 L 153.13278008299 160 L 155.66390041494 154.00000000000006 L 158.19502074689 155.99999999999994 L 160.72614107884 152.00000000000003 L 163.25726141079 154.00000000000006 L 165.78838174274 152.00000000000003 L 168.31950207469 150 L 170.85062240664 160 L 173.38174273859 155.99999999999994 L 175.91286307054 155.99999999999994 L 178.44398340249 155.99999999999994 L 180.97510373444 155.99999999999994 L 183.50622406639 154.00000000000006 L 186.03734439834 160 L 188.56846473029 157.99999999999997 L 191.09958506224 160 L 193.63070539419 155.99999999999994 L 196.16182572614 157.99999999999997 L 198.69294605809 155.99999999999994 L 201.22406639004 157.99999999999997 L 203.75518672199 157.99999999999997 L 206.28630705394 157.99999999999997 L 208.81742738589 160 L 211.34854771784 164.00000000000006 L 213.87966804979 164.00000000000006 L 216.41078838174 164.00000000000006 L 218.94190871369 167.99999999999997 L 221.47302904564 172.00000000000003 L 224.00414937759 180 L 226.53526970954 182.00000000000003 L 229.06639004149 185.99999999999994 L 231.59751037344 185.99999999999994 L 234.12863070539 192.00000000000003 L 236.65975103734 194.00000000000006 L 239.19087136929 194.00000000000006 L 241.72199170124 197.99999999999997 L 244.2531120332 204.00000000000006 L 246.78423236515 205.99999999999994 L 249.3153526971 204.00000000000006 L 251.84647302905 212.00000000000003 L 254.377593361 204.00000000000006 L 256.90871369295 205.99999999999994 L 259.4398340249 207.99999999999997 L 261.97095435685 207.99999999999997 L 264.5020746888 207.99999999999997 L 267.03319502075 207.99999999999997 L 269.5643153527 210 L 272.09543568465 212.00000000000003 L 274.6265560166 212.00000000000003 L 277.15767634855 214.00000000000006 L 279.6887966805 214.00000000000006 L 282.21991701245 214.00000000000006 L 284.7510373444 214.00000000000006 L 287.28215767635 217.99999999999997 L 289.8132780083 214.00000000000006 L 292.34439834025 215.99999999999994 L 294.8755186722 220 L 297.40663900415 222.00000000000003 L 299.9377593361 220 L 302.46887966805 220 L 305 220 L 307.53112033195 217.99999999999997 L 310.0622406639 220 L 312.59336099585 222.00000000000003 L 315.1244813278 224.00000000000006 L 317.65560165975 222.00000000000003 L 320.1867219917 220 L 322.71784232365 222.00000000000003 L 325.2489626556 220 L 327.78008298755 220 L 330.3112033195 224.00000000000006 L 332.84232365145 222.00000000000003 L 335.3734439834 217.99999999999997 L 337.90456431535 217.99999999999997 L 340.4356846473 220 L 342.96680497925 222.00000000000003 L 345.4979253112 225.99999999999994 L 348.02904564315 224.00000000000006 L 350.5601659751 225.99999999999994 L 353.09128630705 220 L 355.622406639 220 L 358.15352697095 220 L 360.6846473029 217.99999999999997 L 363.21576763485 214.00000000000006 L 365.7468879668 217.99999999999997 L 368.27800829876 225.99999999999994 L 370.80912863071 224.00000000000006 L 373.34024896266 220 L 375.87136929461 215.99999999999994 L 378.40248962656 212.00000000000003 L 380.93360995851 215.99999999999994 L 383.46473029046 215.99999999999994 L 385.99585062241 215.99999999999994 L 388.52697095436 214.00000000000006 L 391.05809128631 215.99999999999994 L 393.58921161826 217.99999999999997 L 396.12033195021 217.99999999999997 L 398.65145228216 214.00000000000006 L 401.18257261411 212.00000000000003 L 403.71369294606 214.00000000000006 L 406.24481327801 212.00000000000003 L 408.77593360996 214.00000000000006 L 411.30705394191 215.99999999999994 L 413.83817427386 214.00000000000006 L 416.36929460581 212.00000000000003 L 418.90041493776 210 L 421.43153526971 214.00000000000006 L 423.96265560166 210 L 426.49377593361 215.99999999999994 L 429.02489626556 212.00000000000003 L 431.55601659751 207.99999999999997 L 434.08713692946 205.99999999999994 L 436.61825726141 205.99999999999994 L 439.14937759336 205.99999999999994 L 441.68049792531 204.00000000000006 L 444.21161825726 207.99999999999997 L 446.74273858921 205.99999999999994 L 449.27385892116 207.99999999999997 L 451.80497925311 205.99999999999994 L 454.33609958506 205.99999999999994 L 456.86721991701 205.99999999999994 L 459.39834024896 205.99999999999994 L 461.92946058091 205.99999999999994 L 464.46058091286 205.99999999999994 L 466.99170124481 204.00000000000006 L 469.52282157676 200 L 472.05394190871 194.00000000000006 L 474.58506224066 195.99999999999994 L 477.11618257261 197.99999999999997 L 479.64730290456 197.99999999999997 L 482.17842323651 194.00000000000006 L 484.70954356846 195.99999999999994 L 487.24066390041 194.00000000000006 L 489.77178423237 197.99999999999997 L 492.30290456432 195.99999999999994 L 494.83402489627 200 L 497.36514522822 200 L 499.89626556017 197.99999999999997 L 502.42738589212 195.99999999999994 L 504.95850622407 195.99999999999994 L 507.48962655602 192.00000000000003 L 510.02074688797 190 L 512.55186721992 185.99999999999994 L 515.08298755187 192.00000000000003 L 517.61410788382 190 L 520.14522821577 190 L 522.67634854772 187.99999999999997 L 525.20746887967 185.99999999999994 L 527.73858921162 184.00000000000006 L 530.26970954357 184.00000000000006 L 532.80082987552 185.99999999999994 L 535.33195020747 184.00000000000006 L 537.86307053942 187.99999999999997 L 540.39419087137 185.99999999999994 L 542.92531120332 185.99999999999994 L 545.45643153527 180 L 547.98755186722 175.99999999999994 L 550.51867219917 175.99999999999994 L 553.04979253112 177.99999999999997 L 555.58091286307 175.99999999999994 L 558.11203319502 174.00000000000006 L 560.64315352697 172.00000000000003 L 563.17427385892 197.99999999999997 L 565.70539419087 368 L 568.23651452282 342 L 570.76763485477 300 L 573.29875518672 285.99999999999994 L 575.82987551867 264.00000000000006 L 578.36099585062 270 L 580.89211618257 252.00000000000003 L 583.42323651452 245.99999999999994 L 585.95435684647 247.99999999999997 L 588.48547717842 247.99999999999997 L 591.01659751037 245.99999999999994 L 593.54771784232 237.99999999999997 L 596.07883817427 240 L 598.60995850622 234.00000000000006 L 601.14107883817 234.00000000000006 L 603.67219917012 227.99999999999997 L 606.20331950207 225.99999999999994 L 608.73443983402 225.99999999999994" class="highcharts-graph" data-z-index="1" stroke="#0d233a" stroke-width="1.5" stroke-dasharray="none" aria-hidden="true"></path></g><g class="highcharts-markers highcharts-series-2 highcharts-line-series" visibility="hidden" data-z-index="0.1" opacity="1" transform="translate(50,100) scale(1 1)" clip-path="none" aria-hidden="true"></g><g class="highcharts-series highcharts-series-3 highcharts-line-series" visibility="hidden" data-z-index="0.1" opacity="1" transform="translate(50,100) scale(1 1)" clip-path="url(#highcharts-vsbvs85-1935-)" aria-hidden="true"><path fill="none" d="M 1.2655601659751 484.00000000000006 L 3.7966804979253 492 L 6.3278008298755 492 L 8.8589211618257 522 L 11.390041493776 528 L 13.921161825726 520 L 16.452282157676 510 L 18.983402489627 528 L 21.514522821577 530 L 24.045643153527 524 L 26.576763485477 528 L 29.107883817427 544 L 31.639004149378 516 L 34.170124481328 518 L 36.701244813278 540 L 39.232365145228 550 L 41.763485477178 560 L 44.294605809129 564 L 46.825726141079 588 L 49.356846473029 578 L 51.887966804979 582 L 54.419087136929 588 L 56.95020746888 594 L 59.48132780083 592 L 62.01244813278 594 L 64.54356846473 596 L 67.07468879668 578 L 69.605809128631 598 L 72.136929460581 582 L 74.668049792531 590 L 77.199170124481 608 L 79.730290456432 590 L 82.261410788382 590 L 84.792531120332 602 L 87.323651452282 594 L 89.854771784232 590 L 92.385892116183 596 L 94.917012448133 590 L 97.448132780083 578 L 99.979253112033 592 L 102.51037344398 594 L 105.04149377593 606 L 107.57261410788 590 L 110.10373443983 596 L 112.63485477178 596 L 115.16597510373 590 L 117.69709543568 588 L 120.22821576763 580 L 122.75933609959 586 L 125.29045643154 594 L 127.82157676349 588 L 130.35269709544 584 L 132.88381742739 580 L 135.41493775934 572 L 137.94605809129 576 L 140.47717842324 580 L 143.00829875519 574 L 145.53941908714 572 L 148.07053941909 582 L 150.60165975104 590 L 153.13278008299 600 L 155.66390041494 582 L 158.19502074689 576 L 160.72614107884 580 L 163.25726141079 590 L 165.78838174274 602 L 168.31950207469 610 L 170.85062240664 626 L 173.38174273859 636 L 175.91286307054 620 L 178.44398340249 626 L 180.97510373444 656 L 183.50622406639 628 L 186.03734439834 620 L 188.56846473029 624 L 191.09958506224 634 L 193.63070539419 642 L 196.16182572614 652 L 198.69294605809 648 L 201.22406639004 634 L 203.75518672199 638 L 206.28630705394 664 L 208.81742738589 678 L 211.34854771784 672 L 213.87966804979 672 L 216.41078838174 684 L 218.94190871369 704 L 221.47302904564 708 L 224.00414937759 710 L 226.53526970954 714 L 229.06639004149 728 L 231.59751037344 730 L 234.12863070539 730 L 236.65975103734 742 L 239.19087136929 748 L 241.72199170124 762 L 244.2531120332 774 L 246.78423236515 798 L 249.3153526971 794 L 251.84647302905 796 L 254.377593361 800 L 256.90871369295 792 L 259.4398340249 790 L 261.97095435685 786 L 264.5020746888 796 L 267.03319502075 818 L 269.5643153527 810 L 272.09543568465 798 L 274.6265560166 814 L 277.15767634855 810 L 279.6887966805 798 L 282.21991701245 808 L 284.7510373444 806 L 287.28215767635 806 L 289.8132780083 802 L 292.34439834025 810 L 294.8755186722 812 L 297.40663900415 810 L 299.9377593361 816 L 302.46887966805 798 L 305 798 L 307.53112033195 798 L 310.0622406639 794 L 312.59336099585 794 L 315.1244813278 808 L 317.65560165975 804 L 320.1867219917 808 L 322.71784232365 808 L 325.2489626556 804 L 327.78008298755 788 L 330.3112033195 786 L 332.84232365145 800 L 335.3734439834 798 L 337.90456431535 794 L 340.4356846473 792 L 342.96680497925 802 L 345.4979253112 784 L 348.02904564315 804 L 350.5601659751 804 L 353.09128630705 804 L 355.622406639 794 L 358.15352697095 788 L 360.6846473029 784 L 363.21576763485 786 L 365.7468879668 772 L 368.27800829876 788 L 370.80912863071 778 L 373.34024896266 784 L 375.87136929461 792 L 378.40248962656 808 L 380.93360995851 782 L 383.46473029046 784 L 385.99585062241 776 L 388.52697095436 784 L 391.05809128631 774 L 393.58921161826 776 L 396.12033195021 774 L 398.65145228216 740 L 401.18257261411 740 L 403.71369294606 746 L 406.24481327801 754 L 408.77593360996 748 L 411.30705394191 748 L 413.83817427386 746 L 416.36929460581 744 L 418.90041493776 762 L 421.43153526971 756 L 423.96265560166 758 L 426.49377593361 756 L 429.02489626556 750 L 431.55601659751 748 L 434.08713692946 728 L 436.61825726141 732 L 439.14937759336 726 L 441.68049792531 732 L 444.21161825726 724 L 446.74273858921 724 L 449.27385892116 742 L 451.80497925311 722 L 454.33609958506 710 L 456.86721991701 722 L 459.39834024896 728 L 461.92946058091 724 L 464.46058091286 724 L 466.99170124481 720 L 469.52282157676 724 L 472.05394190871 704 L 474.58506224066 706 L 477.11618257261 714 L 479.64730290456 694 L 482.17842323651 708 L 484.70954356846 708 L 487.24066390041 700 L 489.77178423237 728 L 492.30290456432 738 L 494.83402489627 728 L 497.36514522822 712 L 499.89626556017 706 L 502.42738589212 708 L 504.95850622407 710 L 507.48962655602 710 L 510.02074688797 698 L 512.55186721992 698 L 515.08298755187 736 L 517.61410788382 716 L 520.14522821577 702 L 522.67634854772 706 L 525.20746887967 702 L 527.73858921162 708 L 530.26970954357 724 L 532.80082987552 704 L 535.33195020747 726 L 537.86307053942 716 L 540.39419087137 692 L 542.92531120332 674 L 545.45643153527 696 L 547.98755186722 708 L 550.51867219917 700 L 553.04979253112 690 L 555.58091286307 698 L 558.11203319502 690 L 560.64315352697 678 L 563.17427385892 710 L 565.70539419087 902 L 568.23651452282 846 L 570.76763485477 816 L 573.29875518672 796 L 575.82987551867 752 L 578.36099585062 722 L 580.89211618257 702 L 583.42323651452 704 L 585.95435684647 720 L 588.48547717842 716 L 591.01659751037 698 L 593.54771784232 696 L 596.07883817427 664 L 598.60995850622 656 L 601.14107883817 682 L 603.67219917012 666 L 606.20331950207 668 L 608.73443983402 678" class="highcharts-graph" data-z-index="1" stroke="#8bbc21" stroke-width="1.5" stroke-dasharray="none" aria-hidden="true"></path></g><g class="highcharts-markers highcharts-series-3 highcharts-line-series" visibility="hidden" data-z-index="0.1" opacity="1" transform="translate(50,100) scale(1 1)" clip-path="none" aria-hidden="true"></g><g class="highcharts-series highcharts-series-4 highcharts-line-series" visibility="hidden" data-z-index="0.1" opacity="1" transform="translate(50,100) scale(1 1)" clip-path="url(#highcharts-vsbvs85-1935-)" aria-hidden="true"><path fill="none" d="M 1.2655601659751 40 L 3.7966804979253 44.00000000000006 L 6.3278008298755 45.99999999999994 L 8.8589211618257 48 L 11.390041493776 54.00000000000006 L 13.921161825726 45.99999999999994 L 16.452282157676 48 L 18.983402489627 52 L 21.514522821577 50 L 24.045643153527 52 L 26.576763485477 52 L 29.107883817427 50 L 31.639004149378 50 L 34.170124481328 52 L 36.701244813278 55.99999999999994 L 39.232365145228 60 L 41.763485477178 55.99999999999994 L 44.294605809129 55.99999999999994 L 46.825726141079 55.99999999999994 L 49.356846473029 55.99999999999994 L 51.887966804979 60 L 54.419087136929 60 L 56.95020746888 62 L 59.48132780083 64.00000000000006 L 62.01244813278 65.99999999999994 L 64.54356846473 60 L 67.07468879668 60 L 69.605809128631 62 L 72.136929460581 60 L 74.668049792531 60 L 77.199170124481 62 L 79.730290456432 60 L 82.261410788382 58 L 84.792531120332 58 L 87.323651452282 54.00000000000006 L 89.854771784232 55.99999999999994 L 92.385892116183 60 L 94.917012448133 58 L 97.448132780083 55.99999999999994 L 99.979253112033 55.99999999999994 L 102.51037344398 55.99999999999994 L 105.04149377593 55.99999999999994 L 107.57261410788 55.99999999999994 L 110.10373443983 52 L 112.63485477178 50 L 115.16597510373 54.00000000000006 L 117.69709543568 50 L 120.22821576763 48 L 122.75933609959 52 L 125.29045643154 52 L 127.82157676349 52 L 130.35269709544 50 L 132.88381742739 45.99999999999994 L 135.41493775934 45.99999999999994 L 137.94605809129 45.99999999999994 L 140.47717842324 45.99999999999994 L 143.00829875519 45.99999999999994 L 145.53941908714 44.00000000000006 L 148.07053941909 44.00000000000006 L 150.60165975104 44.00000000000006 L 153.13278008299 45.99999999999994 L 155.66390041494 42 L 158.19502074689 42 L 160.72614107884 38.000000000000114 L 163.25726141079 42 L 165.78838174274 42 L 168.31950207469 40 L 170.85062240664 48 L 173.38174273859 45.99999999999994 L 175.91286307054 45.99999999999994 L 178.44398340249 50 L 180.97510373444 54.00000000000006 L 183.50622406639 50 L 186.03734439834 50 L 188.56846473029 48 L 191.09958506224 50 L 193.63070539419 48 L 196.16182572614 52 L 198.69294605809 54.00000000000006 L 201.22406639004 55.99999999999994 L 203.75518672199 55.99999999999994 L 206.28630705394 58 L 208.81742738589 60 L 211.34854771784 65.99999999999994 L 213.87966804979 67.99999999999997 L 216.41078838174 70 L 218.94190871369 77.99999999999997 L 221.47302904564 85.99999999999994 L 224.00414937759 92.00000000000003 L 226.53526970954 95.99999999999994 L 229.06639004149 105.99999999999994 L 231.59751037344 105.99999999999994 L 234.12863070539 110 L 236.65975103734 114.00000000000006 L 239.19087136929 115.99999999999994 L 241.72199170124 120 L 244.2531120332 127.99999999999997 L 246.78423236515 130 L 249.3153526971 132.00000000000003 L 251.84647302905 135.99999999999994 L 254.377593361 127.99999999999997 L 256.90871369295 130 L 259.4398340249 130 L 261.97095435685 125.99999999999994 L 264.5020746888 127.99999999999997 L 267.03319502075 130 L 269.5643153527 130 L 272.09543568465 127.99999999999997 L 274.6265560166 130 L 277.15767634855 135.99999999999994 L 279.6887966805 140 L 282.21991701245 135.99999999999994 L 284.7510373444 132.00000000000003 L 287.28215767635 134.00000000000006 L 289.8132780083 130 L 292.34439834025 130 L 294.8755186722 130 L 297.40663900415 134.00000000000006 L 299.9377593361 134.00000000000006 L 302.46887966805 132.00000000000003 L 305 132.00000000000003 L 307.53112033195 134.00000000000006 L 310.0622406639 130 L 312.59336099585 130 L 315.1244813278 132.00000000000003 L 317.65560165975 130 L 320.1867219917 132.00000000000003 L 322.71784232365 134.00000000000006 L 325.2489626556 132.00000000000003 L 327.78008298755 132.00000000000003 L 330.3112033195 135.99999999999994 L 332.84232365145 135.99999999999994 L 335.3734439834 130 L 337.90456431535 127.99999999999997 L 340.4356846473 130 L 342.96680497925 130 L 345.4979253112 132.00000000000003 L 348.02904564315 134.00000000000006 L 350.5601659751 134.00000000000006 L 353.09128630705 132.00000000000003 L 355.622406639 132.00000000000003 L 358.15352697095 132.00000000000003 L 360.6846473029 130 L 363.21576763485 132.00000000000003 L 365.7468879668 132.00000000000003 L 368.27800829876 137.99999999999997 L 370.80912863071 132.00000000000003 L 373.34024896266 130 L 375.87136929461 127.99999999999997 L 378.40248962656 127.99999999999997 L 380.93360995851 127.99999999999997 L 383.46473029046 125.99999999999994 L 385.99585062241 125.99999999999994 L 388.52697095436 125.99999999999994 L 391.05809128631 125.99999999999994 L 393.58921161826 124.00000000000006 L 396.12033195021 124.00000000000006 L 398.65145228216 120 L 401.18257261411 122.00000000000003 L 403.71369294606 122.00000000000003 L 406.24481327801 117.99999999999997 L 408.77593360996 122.00000000000003 L 411.30705394191 124.00000000000006 L 413.83817427386 124.00000000000006 L 416.36929460581 120 L 418.90041493776 122.00000000000003 L 421.43153526971 122.00000000000003 L 423.96265560166 122.00000000000003 L 426.49377593361 124.00000000000006 L 429.02489626556 122.00000000000003 L 431.55601659751 122.00000000000003 L 434.08713692946 120 L 436.61825726141 114.00000000000006 L 439.14937759336 114.00000000000006 L 441.68049792531 112.00000000000003 L 444.21161825726 114.00000000000006 L 446.74273858921 114.00000000000006 L 449.27385892116 115.99999999999994 L 451.80497925311 114.00000000000006 L 454.33609958506 115.99999999999994 L 456.86721991701 117.99999999999997 L 459.39834024896 120 L 461.92946058091 117.99999999999997 L 464.46058091286 120 L 466.99170124481 117.99999999999997 L 469.52282157676 115.99999999999994 L 472.05394190871 110 L 474.58506224066 110 L 477.11618257261 112.00000000000003 L 479.64730290456 112.00000000000003 L 482.17842323651 110 L 484.70954356846 110 L 487.24066390041 107.99999999999997 L 489.77178423237 114.00000000000006 L 492.30290456432 112.00000000000003 L 494.83402489627 112.00000000000003 L 497.36514522822 110 L 499.89626556017 105.99999999999994 L 502.42738589212 107.99999999999997 L 504.95850622407 105.99999999999994 L 507.48962655602 105.99999999999994 L 510.02074688797 105.99999999999994 L 512.55186721992 104.00000000000006 L 515.08298755187 112.00000000000003 L 517.61410788382 107.99999999999997 L 520.14522821577 105.99999999999994 L 522.67634854772 105.99999999999994 L 525.20746887967 104.00000000000006 L 527.73858921162 104.00000000000006 L 530.26970954357 102.00000000000003 L 532.80082987552 102.00000000000003 L 535.33195020747 104.00000000000006 L 537.86307053942 104.00000000000006 L 540.39419087137 102.00000000000003 L 542.92531120332 102.00000000000003 L 545.45643153527 100 L 547.98755186722 95.99999999999994 L 550.51867219917 97.99999999999997 L 553.04979253112 97.99999999999997 L 555.58091286307 95.99999999999994 L 558.11203319502 94.00000000000006 L 560.64315352697 94.00000000000006 L 563.17427385892 117.99999999999997 L 565.70539419087 285.99999999999994 L 568.23651452282 250 L 570.76763485477 212.00000000000003 L 573.29875518672 204.00000000000006 L 575.82987551867 174.00000000000006 L 578.36099585062 174.00000000000006 L 580.89211618257 157.99999999999997 L 583.42323651452 164.00000000000006 L 585.95435684647 164.00000000000006 L 588.48547717842 162.00000000000003 L 591.01659751037 160 L 593.54771784232 157.99999999999997 L 596.07883817427 155.99999999999994 L 598.60995850622 154.00000000000006 L 601.14107883817 157.99999999999997 L 603.67219917012 145.99999999999994 L 606.20331950207 144.00000000000006 L 608.73443983402 142.00000000000003" class="highcharts-graph" data-z-index="1" stroke="#1aadce" stroke-width="1.5" stroke-dasharray="none" aria-hidden="true"></path></g><g class="highcharts-markers highcharts-series-4 highcharts-line-series" visibility="hidden" data-z-index="0.1" opacity="1" transform="translate(50,100) scale(1 1)" clip-path="none" aria-hidden="true"></g><g class="highcharts-series highcharts-series-5 highcharts-line-series" visibility="hidden" data-z-index="0.1" opacity="1" transform="translate(50,100) scale(1 1)" clip-path="url(#highcharts-vsbvs85-1935-)" aria-hidden="true"><path fill="none" d="M 1.2655601659751 132.00000000000003 L 3.7966804979253 145.99999999999994 L 6.3278008298755 154.00000000000006 L 8.8589211618257 147.99999999999997 L 11.390041493776 147.99999999999997 L 13.921161825726 147.99999999999997 L 16.452282157676 157.99999999999997 L 18.983402489627 154.00000000000006 L 21.514522821577 147.99999999999997 L 24.045643153527 162.00000000000003 L 26.576763485477 164.00000000000006 L 29.107883817427 160 L 31.639004149378 145.99999999999994 L 34.170124481328 154.00000000000006 L 36.701244813278 174.00000000000006 L 39.232365145228 170 L 41.763485477178 164.00000000000006 L 44.294605809129 167.99999999999997 L 46.825726141079 170 L 49.356846473029 167.99999999999997 L 51.887966804979 164.00000000000006 L 54.419087136929 174.00000000000006 L 56.95020746888 174.00000000000006 L 59.48132780083 174.00000000000006 L 62.01244813278 174.00000000000006 L 64.54356846473 184.00000000000006 L 67.07468879668 170 L 69.605809128631 182.00000000000003 L 72.136929460581 167.99999999999997 L 74.668049792531 172.00000000000003 L 77.199170124481 170 L 79.730290456432 174.00000000000006 L 82.261410788382 184.00000000000006 L 84.792531120332 184.00000000000006 L 87.323651452282 177.99999999999997 L 89.854771784232 175.99999999999994 L 92.385892116183 175.99999999999994 L 94.917012448133 174.00000000000006 L 97.448132780083 175.99999999999994 L 99.979253112033 180 L 102.51037344398 182.00000000000003 L 105.04149377593 187.99999999999997 L 107.57261410788 180 L 110.10373443983 170 L 112.63485477178 160 L 115.16597510373 157.99999999999997 L 117.69709543568 147.99999999999997 L 120.22821576763 154.00000000000006 L 122.75933609959 155.99999999999994 L 125.29045643154 147.99999999999997 L 127.82157676349 170 L 130.35269709544 165.99999999999994 L 132.88381742739 164.00000000000006 L 135.41493775934 154.00000000000006 L 137.94605809129 150 L 140.47717842324 155.99999999999994 L 143.00829875519 147.99999999999997 L 145.53941908714 157.99999999999997 L 148.07053941909 162.00000000000003 L 150.60165975104 150 L 153.13278008299 162.00000000000003 L 155.66390041494 145.99999999999994 L 158.19502074689 144.00000000000006 L 160.72614107884 135.99999999999994 L 163.25726141079 132.00000000000003 L 165.78838174274 140 L 168.31950207469 150 L 170.85062240664 152.00000000000003 L 173.38174273859 155.99999999999994 L 175.91286307054 157.99999999999997 L 178.44398340249 144.00000000000006 L 180.97510373444 145.99999999999994 L 183.50622406639 152.00000000000003 L 186.03734439834 162.00000000000003 L 188.56846473029 164.00000000000006 L 191.09958506224 164.00000000000006 L 193.63070539419 155.99999999999994 L 196.16182572614 154.00000000000006 L 198.69294605809 157.99999999999997 L 201.22406639004 152.00000000000003 L 203.75518672199 167.99999999999997 L 206.28630705394 167.99999999999997 L 208.81742738589 172.00000000000003 L 211.34854771784 170 L 213.87966804979 190 L 216.41078838174 194.00000000000006 L 218.94190871369 204.00000000000006 L 221.47302904564 204.00000000000006 L 224.00414937759 215.99999999999994 L 226.53526970954 234.00000000000006 L 229.06639004149 244.00000000000006 L 231.59751037344 247.99999999999997 L 234.12863070539 252.00000000000003 L 236.65975103734 254.00000000000006 L 239.19087136929 250 L 241.72199170124 262 L 244.2531120332 274.00000000000006 L 246.78423236515 280 L 249.3153526971 274.00000000000006 L 251.84647302905 280 L 254.377593361 280 L 256.90871369295 278 L 259.4398340249 280 L 261.97095435685 274.00000000000006 L 264.5020746888 260 L 267.03319502075 270 L 269.5643153527 274.00000000000006 L 272.09543568465 274.00000000000006 L 274.6265560166 282 L 277.15767634855 274.00000000000006 L 279.6887966805 272 L 282.21991701245 272 L 284.7510373444 282 L 287.28215767635 282 L 289.8132780083 288 L 292.34439834025 294.00000000000006 L 294.8755186722 298 L 297.40663900415 295.99999999999994 L 299.9377593361 300 L 302.46887966805 290 L 305 274.00000000000006 L 307.53112033195 270 L 310.0622406639 284.00000000000006 L 312.59336099585 274.00000000000006 L 315.1244813278 264.00000000000006 L 317.65560165975 260 L 320.1867219917 255.99999999999994 L 322.71784232365 255.99999999999994 L 325.2489626556 260 L 327.78008298755 258 L 330.3112033195 264.00000000000006 L 332.84232365145 262 L 335.3734439834 262 L 337.90456431535 252.00000000000003 L 340.4356846473 255.99999999999994 L 342.96680497925 265.99999999999994 L 345.4979253112 254.00000000000006 L 348.02904564315 255.99999999999994 L 350.5601659751 254.00000000000006 L 353.09128630705 254.00000000000006 L 355.622406639 250 L 358.15352697095 262 L 360.6846473029 250 L 363.21576763485 260 L 365.7468879668 254.00000000000006 L 368.27800829876 264.00000000000006 L 370.80912863071 260 L 373.34024896266 258 L 375.87136929461 254.00000000000006 L 378.40248962656 245.99999999999994 L 380.93360995851 242.00000000000003 L 383.46473029046 242.00000000000003 L 385.99585062241 242.00000000000003 L 388.52697095436 232.00000000000003 L 391.05809128631 230 L 393.58921161826 237.99999999999997 L 396.12033195021 224.00000000000006 L 398.65145228216 224.00000000000006 L 401.18257261411 225.99999999999994 L 403.71369294606 222.00000000000003 L 406.24481327801 227.99999999999997 L 408.77593360996 224.00000000000006 L 411.30705394191 220 L 413.83817427386 195.99999999999994 L 416.36929460581 204.00000000000006 L 418.90041493776 202.00000000000003 L 421.43153526971 202.00000000000003 L 423.96265560166 202.00000000000003 L 426.49377593361 205.99999999999994 L 429.02489626556 202.00000000000003 L 431.55601659751 204.00000000000006 L 434.08713692946 192.00000000000003 L 436.61825726141 197.99999999999997 L 439.14937759336 195.99999999999994 L 441.68049792531 200 L 444.21161825726 204.00000000000006 L 446.74273858921 197.99999999999997 L 449.27385892116 197.99999999999997 L 451.80497925311 197.99999999999997 L 454.33609958506 182.00000000000003 L 456.86721991701 185.99999999999994 L 459.39834024896 190 L 461.92946058091 180 L 464.46058091286 177.99999999999997 L 466.99170124481 167.99999999999997 L 469.52282157676 175.99999999999994 L 472.05394190871 174.00000000000006 L 474.58506224066 165.99999999999994 L 477.11618257261 165.99999999999994 L 479.64730290456 165.99999999999994 L 482.17842323651 165.99999999999994 L 484.70954356846 172.00000000000003 L 487.24066390041 155.99999999999994 L 489.77178423237 170 L 492.30290456432 165.99999999999994 L 494.83402489627 160 L 497.36514522822 172.00000000000003 L 499.89626556017 150 L 502.42738589212 150 L 504.95850622407 160 L 507.48962655602 150 L 510.02074688797 154.00000000000006 L 512.55186721992 152.00000000000003 L 515.08298755187 155.99999999999994 L 517.61410788382 147.99999999999997 L 520.14522821577 147.99999999999997 L 522.67634854772 154.00000000000006 L 525.20746887967 164.00000000000006 L 527.73858921162 150 L 530.26970954357 157.99999999999997 L 532.80082987552 160 L 535.33195020747 152.00000000000003 L 537.86307053942 147.99999999999997 L 540.39419087137 154.00000000000006 L 542.92531120332 140 L 545.45643153527 142.00000000000003 L 547.98755186722 137.99999999999997 L 550.51867219917 140 L 553.04979253112 145.99999999999994 L 555.58091286307 134.00000000000006 L 558.11203319502 144.00000000000006 L 560.64315352697 134.00000000000006 L 563.17427385892 165.99999999999994 L 565.70539419087 344.00000000000006 L 568.23651452282 328 L 570.76763485477 304.00000000000006 L 573.29875518672 290 L 575.82987551867 270 L 578.36099585062 270 L 580.89211618257 245.99999999999994 L 583.42323651452 240 L 585.95435684647 242.00000000000003 L 588.48547717842 225.99999999999994 L 591.01659751037 235.99999999999994 L 593.54771784232 222.00000000000003 L 596.07883817427 214.00000000000006 L 598.60995850622 212.00000000000003 L 601.14107883817 202.00000000000003 L 603.67219917012 204.00000000000006 L 606.20331950207 195.99999999999994 L 608.73443983402 192.00000000000003" class="highcharts-graph" data-z-index="1" stroke="#492970" stroke-width="1.5" stroke-dasharray="none" aria-hidden="true"></path></g><g class="highcharts-markers highcharts-series-5 highcharts-line-series" visibility="hidden" data-z-index="0.1" opacity="1" transform="translate(50,100) scale(1 1)" clip-path="none" aria-hidden="true"></g><g class="highcharts-series highcharts-series-6 highcharts-line-series" visibility="hidden" data-z-index="0.1" opacity="1" transform="translate(50,100) scale(1 1)" clip-path="url(#highcharts-vsbvs85-1935-)" aria-hidden="true"><path fill="none" d="M 41.763485477178 48 L 44.294605809129 65.99999999999994 L 46.825726141079 77.99999999999997 L 49.356846473029 67.99999999999997 L 51.887966804979 65.99999999999994 L 54.419087136929 84.00000000000006 L 56.95020746888 82.00000000000003 L 59.48132780083 74.00000000000006 L 62.01244813278 77.99999999999997 L 64.54356846473 74.00000000000006 L 67.07468879668 77.99999999999997 L 69.605809128631 58 L 72.136929460581 54.00000000000006 L 74.668049792531 52 L 77.199170124481 55.99999999999994 L 79.730290456432 58 L 82.261410788382 70 L 84.792531120332 80 L 87.323651452282 72.00000000000003 L 89.854771784232 67.99999999999997 L 92.385892116183 58 L 94.917012448133 60 L 97.448132780083 42 L 99.979253112033 55.99999999999994 L 102.51037344398 50 L 105.04149377593 54.00000000000006 L 107.57261410788 58 L 110.10373443983 58 L 112.63485477178 60 L 115.16597510373 62 L 117.69709543568 55.99999999999994 L 120.22821576763 48 L 122.75933609959 52 L 125.29045643154 24.000000000000057 L 127.82157676349 42 L 130.35269709544 50 L 132.88381742739 44.00000000000006 L 135.41493775934 31.999999999999886 L 137.94605809129 34.00000000000006 L 140.47717842324 42 L 143.00829875519 48 L 145.53941908714 44.00000000000006 L 148.07053941909 38.000000000000114 L 150.60165975104 48 L 153.13278008299 18.000000000000114 L 155.66390041494 18.000000000000114 L 158.19502074689 30 L 160.72614107884 25.999999999999943 L 163.25726141079 31.999999999999886 L 165.78838174274 35.99999999999994 L 168.31950207469 38.000000000000114 L 170.85062240664 44.00000000000006 L 173.38174273859 34.00000000000006 L 175.91286307054 28.000000000000114 L 178.44398340249 21.999999999999886 L 180.97510373444 24.000000000000057 L 183.50622406639 48 L 186.03734439834 42 L 188.56846473029 20 L 191.09958506224 35.99999999999994 L 193.63070539419 15.999999999999943 L 196.16182572614 20 L 198.69294605809 24.000000000000057 L 201.22406639004 8.000000000000114 L 203.75518672199 30 L 206.28630705394 38.000000000000114 L 208.81742738589 25.999999999999943 L 211.34854771784 34.00000000000006 L 213.87966804979 38.000000000000114 L 216.41078838174 38.000000000000114 L 218.94190871369 60 L 221.47302904564 64.00000000000006 L 224.00414937759 90 L 226.53526970954 90 L 229.06639004149 92.00000000000003 L 231.59751037344 84.00000000000006 L 234.12863070539 87.99999999999997 L 236.65975103734 92.00000000000003 L 239.19087136929 84.00000000000006 L 241.72199170124 94.00000000000006 L 244.2531120332 102.00000000000003 L 246.78423236515 107.99999999999997 L 249.3153526971 110 L 251.84647302905 122.00000000000003 L 254.377593361 142.00000000000003 L 256.90871369295 140 L 259.4398340249 130 L 261.97095435685 97.99999999999997 L 264.5020746888 122.00000000000003 L 267.03319502075 120 L 269.5643153527 124.00000000000006 L 272.09543568465 115.99999999999994 L 274.6265560166 122.00000000000003 L 277.15767634855 110 L 279.6887966805 124.00000000000006 L 282.21991701245 125.99999999999994 L 284.7510373444 110 L 287.28215767635 112.00000000000003 L 289.8132780083 110 L 292.34439834025 120 L 294.8755186722 114.00000000000006 L 297.40663900415 115.99999999999994 L 299.9377593361 130 L 302.46887966805 135.99999999999994 L 305 135.99999999999994 L 307.53112033195 117.99999999999997 L 310.0622406639 117.99999999999997 L 312.59336099585 115.99999999999994 L 315.1244813278 122.00000000000003 L 317.65560165975 140 L 320.1867219917 135.99999999999994 L 322.71784232365 137.99999999999997 L 325.2489626556 120 L 327.78008298755 114.00000000000006 L 330.3112033195 105.99999999999994 L 332.84232365145 122.00000000000003 L 335.3734439834 102.00000000000003 L 337.90456431535 112.00000000000003 L 340.4356846473 105.99999999999994 L 342.96680497925 94.00000000000006 L 345.4979253112 104.00000000000006 L 348.02904564315 102.00000000000003 L 350.5601659751 100 L 353.09128630705 107.99999999999997 L 355.622406639 104.00000000000006 L 358.15352697095 75.99999999999994 L 360.6846473029 100 L 363.21576763485 92.00000000000003 L 365.7468879668 84.00000000000006 L 368.27800829876 104.00000000000006 L 370.80912863071 94.00000000000006 L 373.34024896266 84.00000000000006 L 375.87136929461 102.00000000000003 L 378.40248962656 115.99999999999994 L 380.93360995851 105.99999999999994 L 383.46473029046 124.00000000000006 L 385.99585062241 117.99999999999997 L 388.52697095436 122.00000000000003 L 391.05809128631 115.99999999999994 L 393.58921161826 102.00000000000003 L 396.12033195021 107.99999999999997 L 398.65145228216 107.99999999999997 L 401.18257261411 115.99999999999994 L 403.71369294606 107.99999999999997 L 406.24481327801 117.99999999999997 L 408.77593360996 107.99999999999997 L 411.30705394191 112.00000000000003 L 413.83817427386 110 L 416.36929460581 97.99999999999997 L 418.90041493776 114.00000000000006 L 421.43153526971 115.99999999999994 L 423.96265560166 114.00000000000006 L 426.49377593361 122.00000000000003 L 429.02489626556 127.99999999999997 L 431.55601659751 105.99999999999994 L 434.08713692946 105.99999999999994 L 436.61825726141 117.99999999999997 L 439.14937759336 107.99999999999997 L 441.68049792531 104.00000000000006 L 444.21161825726 92.00000000000003 L 446.74273858921 105.99999999999994 L 449.27385892116 100 L 451.80497925311 95.99999999999994 L 454.33609958506 107.99999999999997 L 456.86721991701 100 L 459.39834024896 90 L 461.92946058091 100 L 464.46058091286 100 L 466.99170124481 90 L 469.52282157676 92.00000000000003 L 472.05394190871 100 L 474.58506224066 90 L 477.11618257261 87.99999999999997 L 479.64730290456 95.99999999999994 L 482.17842323651 84.00000000000006 L 484.70954356846 85.99999999999994 L 487.24066390041 80 L 489.77178423237 85.99999999999994 L 492.30290456432 97.99999999999997 L 494.83402489627 97.99999999999997 L 497.36514522822 95.99999999999994 L 499.89626556017 105.99999999999994 L 502.42738589212 94.00000000000006 L 504.95850622407 90 L 507.48962655602 90 L 510.02074688797 92.00000000000003 L 512.55186721992 77.99999999999997 L 515.08298755187 84.00000000000006 L 517.61410788382 82.00000000000003 L 520.14522821577 82.00000000000003 L 522.67634854772 74.00000000000006 L 525.20746887967 90 L 527.73858921162 70 L 530.26970954357 74.00000000000006 L 532.80082987552 75.99999999999994 L 535.33195020747 92.00000000000003 L 537.86307053942 85.99999999999994 L 540.39419087137 77.99999999999997 L 542.92531120332 75.99999999999994 L 545.45643153527 75.99999999999994 L 547.98755186722 72.00000000000003 L 550.51867219917 54.00000000000006 L 553.04979253112 62 L 555.58091286307 85.99999999999994 L 558.11203319502 82.00000000000003 L 560.64315352697 67.99999999999997 L 563.17427385892 97.99999999999997 L 565.70539419087 278 L 568.23651452282 280 L 570.76763485477 262 L 573.29875518672 195.99999999999994 L 575.82987551867 180 L 578.36099585062 174.00000000000006 L 580.89211618257 160 L 583.42323651452 150 L 585.95435684647 155.99999999999994 L 588.48547717842 147.99999999999997 L 591.01659751037 140 L 593.54771784232 134.00000000000006 L 596.07883817427 135.99999999999994 L 598.60995850622 124.00000000000006 L 601.14107883817 127.99999999999997 L 603.67219917012 97.99999999999997 L 606.20331950207 97.99999999999997 L 608.73443983402 87.99999999999997" class="highcharts-graph" data-z-index="1" stroke="#77a1e5" stroke-width="1.5" stroke-dasharray="none" aria-hidden="true"></path></g><g class="highcharts-markers highcharts-series-6 highcharts-line-series" visibility="hidden" data-z-index="0.1" opacity="1" transform="translate(50,100) scale(1 1)" clip-path="none" aria-hidden="true"></g><g class="highcharts-series highcharts-series-7 highcharts-line-series" visibility="hidden" data-z-index="0.1" opacity="1" transform="translate(50,100) scale(1 1)" clip-path="url(#highcharts-vsbvs85-1935-)" aria-hidden="true"><path fill="none" d="M 1.2655601659751 30 L 3.7966804979253 25.999999999999943 L 6.3278008298755 38.000000000000114 L 8.8589211618257 40 L 11.390041493776 40 L 13.921161825726 28.000000000000114 L 16.452282157676 42 L 18.983402489627 42 L 21.514522821577 38.000000000000114 L 24.045643153527 42 L 26.576763485477 35.99999999999994 L 29.107883817427 42 L 31.639004149378 38.000000000000114 L 34.170124481328 52 L 36.701244813278 50 L 39.232365145228 55.99999999999994 L 41.763485477178 42 L 44.294605809129 38.000000000000114 L 46.825726141079 50 L 49.356846473029 45.99999999999994 L 51.887966804979 65.99999999999994 L 54.419087136929 65.99999999999994 L 56.95020746888 75.99999999999994 L 59.48132780083 70 L 62.01244813278 64.00000000000006 L 64.54356846473 67.99999999999997 L 67.07468879668 65.99999999999994 L 69.605809128631 55.99999999999994 L 72.136929460581 52 L 74.668049792531 60 L 77.199170124481 45.99999999999994 L 79.730290456432 48 L 82.261410788382 38.000000000000114 L 84.792531120332 35.99999999999994 L 87.323651452282 35.99999999999994 L 89.854771784232 38.000000000000114 L 92.385892116183 42 L 94.917012448133 42 L 97.448132780083 45.99999999999994 L 99.979253112033 45.99999999999994 L 102.51037344398 50 L 105.04149377593 44.00000000000006 L 107.57261410788 35.99999999999994 L 110.10373443983 45.99999999999994 L 112.63485477178 38.000000000000114 L 115.16597510373 38.000000000000114 L 117.69709543568 38.000000000000114 L 120.22821576763 38.000000000000114 L 122.75933609959 50 L 125.29045643154 40 L 127.82157676349 38.000000000000114 L 130.35269709544 34.00000000000006 L 132.88381742739 15.999999999999943 L 135.41493775934 14.000000000000057 L 137.94605809129 14.000000000000057 L 140.47717842324 18.000000000000114 L 143.00829875519 14.000000000000057 L 145.53941908714 10 L 148.07053941909 21.999999999999886 L 150.60165975104 28.000000000000114 L 153.13278008299 34.00000000000006 L 155.66390041494 14.000000000000057 L 158.19502074689 15.999999999999943 L 160.72614107884 4.000000000000057 L 163.25726141079 10 L 165.78838174274 14.000000000000057 L 168.31950207469 10 L 170.85062240664 18.000000000000114 L 173.38174273859 25.999999999999943 L 175.91286307054 25.999999999999943 L 178.44398340249 25.999999999999943 L 180.97510373444 14.000000000000057 L 183.50622406639 24.000000000000057 L 186.03734439834 25.999999999999943 L 188.56846473029 25.999999999999943 L 191.09958506224 34.00000000000006 L 193.63070539419 34.00000000000006 L 196.16182572614 31.999999999999886 L 198.69294605809 42 L 201.22406639004 42 L 203.75518672199 34.00000000000006 L 206.28630705394 48 L 208.81742738589 54.00000000000006 L 211.34854771784 54.00000000000006 L 213.87966804979 60 L 216.41078838174 75.99999999999994 L 218.94190871369 82.00000000000003 L 221.47302904564 87.99999999999997 L 224.00414937759 97.99999999999997 L 226.53526970954 110 L 229.06639004149 114.00000000000006 L 231.59751037344 105.99999999999994 L 234.12863070539 125.99999999999994 L 236.65975103734 127.99999999999997 L 239.19087136929 122.00000000000003 L 241.72199170124 142.00000000000003 L 244.2531120332 135.99999999999994 L 246.78423236515 142.00000000000003 L 249.3153526971 134.00000000000006 L 251.84647302905 147.99999999999997 L 254.377593361 134.00000000000006 L 256.90871369295 130 L 259.4398340249 134.00000000000006 L 261.97095435685 137.99999999999997 L 264.5020746888 134.00000000000006 L 267.03319502075 142.00000000000003 L 269.5643153527 134.00000000000006 L 272.09543568465 134.00000000000006 L 274.6265560166 134.00000000000006 L 277.15767634855 147.99999999999997 L 279.6887966805 152.00000000000003 L 282.21991701245 154.00000000000006 L 284.7510373444 142.00000000000003 L 287.28215767635 154.00000000000006 L 289.8132780083 145.99999999999994 L 292.34439834025 147.99999999999997 L 294.8755186722 154.00000000000006 L 297.40663900415 147.99999999999997 L 299.9377593361 145.99999999999994 L 302.46887966805 135.99999999999994 L 305 135.99999999999994 L 307.53112033195 132.00000000000003 L 310.0622406639 137.99999999999997 L 312.59336099585 132.00000000000003 L 315.1244813278 135.99999999999994 L 317.65560165975 130 L 320.1867219917 134.00000000000006 L 322.71784232365 127.99999999999997 L 325.2489626556 125.99999999999994 L 327.78008298755 127.99999999999997 L 330.3112033195 125.99999999999994 L 332.84232365145 132.00000000000003 L 335.3734439834 124.00000000000006 L 337.90456431535 125.99999999999994 L 340.4356846473 135.99999999999994 L 342.96680497925 130 L 345.4979253112 124.00000000000006 L 348.02904564315 124.00000000000006 L 350.5601659751 134.00000000000006 L 353.09128630705 124.00000000000006 L 355.622406639 110 L 358.15352697095 114.00000000000006 L 360.6846473029 112.00000000000003 L 363.21576763485 115.99999999999994 L 365.7468879668 120 L 368.27800829876 125.99999999999994 L 370.80912863071 115.99999999999994 L 373.34024896266 120 L 375.87136929461 112.00000000000003 L 378.40248962656 107.99999999999997 L 380.93360995851 102.00000000000003 L 383.46473029046 104.00000000000006 L 385.99585062241 105.99999999999994 L 388.52697095436 95.99999999999994 L 391.05809128631 102.00000000000003 L 393.58921161826 95.99999999999994 L 396.12033195021 87.99999999999997 L 398.65145228216 80 L 401.18257261411 80 L 403.71369294606 82.00000000000003 L 406.24481327801 77.99999999999997 L 408.77593360996 85.99999999999994 L 411.30705394191 85.99999999999994 L 413.83817427386 84.00000000000006 L 416.36929460581 84.00000000000006 L 418.90041493776 85.99999999999994 L 421.43153526971 92.00000000000003 L 423.96265560166 94.00000000000006 L 426.49377593361 94.00000000000006 L 429.02489626556 90 L 431.55601659751 94.00000000000006 L 434.08713692946 92.00000000000003 L 436.61825726141 82.00000000000003 L 439.14937759336 72.00000000000003 L 441.68049792531 67.99999999999997 L 444.21161825726 85.99999999999994 L 446.74273858921 82.00000000000003 L 449.27385892116 82.00000000000003 L 451.80497925311 74.00000000000006 L 454.33609958506 70 L 456.86721991701 82.00000000000003 L 459.39834024896 84.00000000000006 L 461.92946058091 84.00000000000006 L 464.46058091286 84.00000000000006 L 466.99170124481 75.99999999999994 L 469.52282157676 65.99999999999994 L 472.05394190871 54.00000000000006 L 474.58506224066 64.00000000000006 L 477.11618257261 65.99999999999994 L 479.64730290456 62 L 482.17842323651 58 L 484.70954356846 67.99999999999997 L 487.24066390041 60 L 489.77178423237 75.99999999999994 L 492.30290456432 72.00000000000003 L 494.83402489627 72.00000000000003 L 497.36514522822 70 L 499.89626556017 62 L 502.42738589212 67.99999999999997 L 504.95850622407 54.00000000000006 L 507.48962655602 55.99999999999994 L 510.02074688797 50 L 512.55186721992 42 L 515.08298755187 64.00000000000006 L 517.61410788382 60 L 520.14522821577 58 L 522.67634854772 48 L 525.20746887967 40 L 527.73858921162 42 L 530.26970954357 48 L 532.80082987552 42 L 535.33195020747 55.99999999999994 L 537.86307053942 48 L 540.39419087137 48 L 542.92531120332 48 L 545.45643153527 42 L 547.98755186722 31.999999999999886 L 550.51867219917 30 L 553.04979253112 28.000000000000114 L 555.58091286307 34.00000000000006 L 558.11203319502 24.000000000000057 L 560.64315352697 20 L 563.17427385892 60 L 565.70539419087 292 L 568.23651452282 262 L 570.76763485477 202.00000000000003 L 573.29875518672 192.00000000000003 L 575.82987551867 150 L 578.36099585062 155.99999999999994 L 580.89211618257 124.00000000000006 L 583.42323651452 122.00000000000003 L 585.95435684647 135.99999999999994 L 588.48547717842 132.00000000000003 L 591.01659751037 122.00000000000003 L 593.54771784232 112.00000000000003 L 596.07883817427 117.99999999999997 L 598.60995850622 110 L 601.14107883817 107.99999999999997 L 603.67219917012 92.00000000000003 L 606.20331950207 92.00000000000003 L 608.73443983402 90" class="highcharts-graph" data-z-index="1" stroke="#f28f43" stroke-width="1.5" stroke-dasharray="none" aria-hidden="true"></path></g><g class="highcharts-markers highcharts-series-7 highcharts-line-series" visibility="hidden" data-z-index="0.1" opacity="1" transform="translate(50,100) scale(1 1)" clip-path="none" aria-hidden="true"></g></g><g class="highcharts-exporting-group" data-z-index="3" aria-hidden="true"><g class="highcharts-button highcharts-contextbutton" stroke-linecap="round" transform="translate(675,515)"><rect fill="#ffffff" class="highcharts-button-box" x="0.5" y="0.5" width="24" height="24" rx="2" ry="2" stroke="none" stroke-width="1"></rect><title>Chart context menu</title><path fill="#666666" d="M 12 2 L 14 2 L 14 9 L 18 9 L 13 14 L 8 9 L 12 9 z M 3 16.9 L 3 21 L 22 21 L 22 17 L 22 17 L 22 21 L 3 21 L 3 16.9 z" class="highcharts-button-symbol" data-z-index="1" stroke="#666666" stroke-width="2"></path><text x="0" data-z-index="1" y="12" style="color:#333333;cursor:pointer;font-weight:normal;fill:#333333;"></text></g></g><text x="20" text-anchor="start" class="highcharts-title" data-z-index="4" style="color:#000000;font-size:14px;font-family:sans-serif;font-weight:bold;fill:#000000;" y="21" aria-hidden="true"><tspan>Employment&amp;#8211;population ratio, seasonally adjusted</tspan></text><text x="20" text-anchor="start" class="highcharts-subtitle" data-z-index="4" style="color:#000000;font-family:sans-serif;font-weight:normal;background-color:#fff;font-size:12px;fill:#000000;" y="40" aria-hidden="true"><tspan>Click and drag within the chart to zoom in on time periods</tspan></text><text x="20" text-anchor="start" class="highcharts-caption" data-z-index="4" style="color:#666666;fill:#666666;" y="537" aria-hidden="true"></text><g class="highcharts-legend" data-z-index="7" transform="translate(101,45)" aria-hidden="true"><rect fill="none" class="highcharts-legend-box" rx="0" ry="0" x="0" y="0" width="558" height="56" visibility="visible"></rect><g data-z-index="1"><g><g class="highcharts-legend-item highcharts-line-series highcharts-color-undefined highcharts-series-0" data-z-index="1" transform="translate(8,3)"><path fill="none" d="M 0 11 L 16 11" class="highcharts-graph" stroke-dasharray="none" stroke="#910000" stroke-width="1.5"></path><text x="21" style="color:#000080;cursor:pointer;font-size:12px;font-weight:normal;font-family:Calibri, Verdana, Arial, Helvetica, sans-serif;line-height:1.2;fill:#000080;" text-anchor="start" data-z-index="2" y="15"><tspan>Total</tspan></text></g><g class="highcharts-legend-item highcharts-line-series highcharts-color-undefined highcharts-series-1 highcharts-legend-item-hidden" data-z-index="1" transform="translate(77.625,3)"><path fill="none" d="M 0 11 L 16 11" class="highcharts-graph" stroke-dasharray="none" stroke="gray" stroke-width="1.5"></path><text x="21" y="15" style="color:gray;cursor:pointer;font-size:12px;font-weight:normal;font-family:Calibri, Verdana, Arial, Helvetica, sans-serif;line-height:1.2;fill:gray;" text-anchor="start" data-z-index="2"><tspan>Men, 20 years and over</tspan></text></g><g class="highcharts-legend-item highcharts-line-series highcharts-color-undefined highcharts-series-2 highcharts-legend-item-hidden" data-z-index="1" transform="translate(261.5,3)"><path fill="none" d="M 0 11 L 16 11" class="highcharts-graph" stroke-dasharray="none" stroke="gray" stroke-width="1.5"></path><text x="21" y="15" style="color:gray;cursor:pointer;font-size:12px;font-weight:normal;font-family:Calibri, Verdana, Arial, Helvetica, sans-serif;line-height:1.2;fill:gray;" text-anchor="start" data-z-index="2"><tspan>Women, 20 years and over</tspan></text></g><g class="highcharts-legend-item highcharts-line-series highcharts-color-undefined highcharts-series-3 highcharts-legend-item-hidden" data-z-index="1" transform="translate(8,18)"><path fill="none" d="M 0 11 L 16 11" class="highcharts-graph" stroke-dasharray="none" stroke="gray" stroke-width="1.5"></path><text x="21" y="15" style="color:gray;cursor:pointer;font-size:12px;font-weight:normal;font-family:Calibri, Verdana, Arial, Helvetica, sans-serif;line-height:1.2;fill:gray;" text-anchor="start" data-z-index="2"><tspan>16 to 19 years old</tspan></text></g><g class="highcharts-legend-item highcharts-line-series highcharts-color-undefined highcharts-series-4 highcharts-legend-item-hidden" data-z-index="1" transform="translate(159.1875,18)"><path fill="none" d="M 0 11 L 16 11" class="highcharts-graph" stroke-dasharray="none" stroke="gray" stroke-width="1.5"></path><text x="21" y="15" style="color:gray;cursor:pointer;font-size:12px;font-weight:normal;font-family:Calibri, Verdana, Arial, Helvetica, sans-serif;line-height:1.2;fill:gray;" text-anchor="start" data-z-index="2"><tspan>White</tspan></text></g><g class="highcharts-legend-item highcharts-line-series highcharts-color-undefined highcharts-series-5 highcharts-legend-item-hidden" data-z-index="1" transform="translate(234.828125,18)"><path fill="none" d="M 0 11 L 16 11" class="highcharts-graph" stroke-dasharray="none" stroke="gray" stroke-width="1.5"></path><text x="21" y="15" style="color:gray;cursor:pointer;font-size:12px;font-weight:normal;font-family:Calibri, Verdana, Arial, Helvetica, sans-serif;line-height:1.2;fill:gray;" text-anchor="start" data-z-index="2"><tspan>Black or African American</tspan></text></g><g class="highcharts-legend-item highcharts-line-series highcharts-color-undefined highcharts-series-6 highcharts-legend-item-hidden" data-z-index="1" transform="translate(431.359375,18)"><path fill="none" d="M 0 11 L 16 11" class="highcharts-graph" stroke-dasharray="none" stroke="gray" stroke-width="1.5"></path><text x="21" y="15" style="color:gray;cursor:pointer;font-size:12px;font-weight:normal;font-family:Calibri, Verdana, Arial, Helvetica, sans-serif;line-height:1.2;fill:gray;" text-anchor="start" data-z-index="2"><tspan>Asian</tspan></text></g><g class="highcharts-legend-item highcharts-line-series highcharts-color-undefined highcharts-series-7 highcharts-legend-item-hidden" data-z-index="1" transform="translate(8,33)"><path fill="none" d="M 0 11 L 16 11" class="highcharts-graph" stroke-dasharray="none" stroke="gray" stroke-width="1.5"></path><text x="21" y="15" style="color:gray;cursor:pointer;font-size:12px;font-weight:normal;font-family:Calibri, Verdana, Arial, Helvetica, sans-serif;line-height:1.2;fill:gray;" text-anchor="start" data-z-index="2"><tspan>Hispanic or Latino</tspan></text></g></g></g></g><g class="highcharts-axis-labels highcharts-xaxis-labels" data-z-index="7" aria-hidden="true"><text x="51.265560165975" style="color:#000000;cursor:default;font-size:12px;font-family:Calibri, Verdana, Arial, Helvetica, sans-serif;font-weight:normal;background-color:#fff;text-align:center;fill:#000000;" text-anchor="middle" transform="translate(0,0)" y="440" opacity="1"><tspan>Sept 2</tspan><title>Sept 2001</title></text><text x="112.01244813278" style="color:#000000;cursor:default;font-size:12px;font-family:Calibri, Verdana, Arial, Helvetica, sans-serif;font-weight:normal;background-color:#fff;text-align:center;fill:#000000;" text-anchor="middle" transform="translate(0,0)" y="440" opacity="1"><tspan>Sept 2</tspan><title>Sept 2003</title></text><text x="172.75933609959" style="color:#000000;cursor:default;font-size:12px;font-family:Calibri, Verdana, Arial, Helvetica, sans-serif;font-weight:normal;background-color:#fff;text-align:center;fill:#000000;" text-anchor="middle" transform="translate(0,0)" y="440" opacity="1"><tspan>Sept 2</tspan><title>Sept 2005</title></text><text x="233.50622406639" style="color:#000000;cursor:default;font-size:12px;font-family:Calibri, Verdana, Arial, Helvetica, sans-serif;font-weight:normal;background-color:#fff;text-align:center;fill:#000000;" text-anchor="middle" transform="translate(0,0)" y="440" opacity="1"><tspan>Sept 2</tspan><title>Sept 2007</title></text><text x="294.2531120332" style="color:#000000;cursor:default;font-size:12px;font-family:Calibri, Verdana, Arial, Helvetica, sans-serif;font-weight:normal;background-color:#fff;text-align:center;fill:#000000;" text-anchor="middle" transform="translate(0,0)" y="440" opacity="1"><tspan>Sept 2</tspan><title>Sept 2009</title></text><text x="355" style="color:#000000;cursor:default;font-size:12px;font-family:Calibri, Verdana, Arial, Helvetica, sans-serif;font-weight:normal;background-color:#fff;text-align:center;fill:#000000;" text-anchor="middle" transform="translate(0,0)" y="440" opacity="1"><tspan>Sept 2</tspan><title>Sept 2011</title></text><text x="415.7468879668" style="color:#000000;cursor:default;font-size:12px;font-family:Calibri, Verdana, Arial, Helvetica, sans-serif;font-weight:normal;background-color:#fff;text-align:center;fill:#000000;" text-anchor="middle" transform="translate(0,0)" y="440" opacity="1"><tspan>Sept 2</tspan><title>Sept 2013</title></text><text x="476.49377593361" style="color:#000000;cursor:default;font-size:12px;font-family:Calibri, Verdana, Arial, Helvetica, sans-serif;font-weight:normal;background-color:#fff;text-align:center;fill:#000000;" text-anchor="middle" transform="translate(0,0)" y="440" opacity="1"><tspan>Sept 2</tspan><title>Sept 2015</title></text><text x="537.24066390041" style="color:#000000;cursor:default;font-size:12px;font-family:Calibri, Verdana, Arial, Helvetica, sans-serif;font-weight:normal;background-color:#fff;text-align:center;fill:#000000;" text-anchor="middle" transform="translate(0,0)" y="440" opacity="1"><tspan>Sept 2</tspan><title>Sept 2017</title></text><text x="597.98755186722" style="color:#000000;cursor:default;font-size:12px;font-family:Calibri, Verdana, Arial, Helvetica, sans-serif;font-weight:normal;background-color:#fff;text-align:center;fill:#000000;" text-anchor="middle" transform="translate(0,0)" y="440" opacity="1"><tspan>Sept 2</tspan><title>Sept 2019</title></text><text x="658.73443983402" style="color:#000000;cursor:default;font-size:12px;font-family:Calibri, Verdana, Arial, Helvetica, sans-serif;font-weight:normal;background-color:#fff;text-align:center;fill:#000000;" text-anchor="middle" transform="translate(0,0)" y="440" opacity="1"><tspan>Sept 2</tspan><title>Sept 2021</title></text></g><g class="highcharts-axis-labels highcharts-yaxis-labels" data-z-index="7" aria-hidden="true"><text x="35" style="color:#000000;cursor:default;font-size:12px;font-weight:normal;background-color:#fff;font-family:Calibri, Verdana, Arial, Helvetica, sans-serif;fill:#000000;" text-anchor="end" transform="translate(0,0)" y="425" opacity="1"><tspan>50.0</tspan></text><text x="35" style="color:#000000;cursor:default;font-size:12px;font-weight:normal;background-color:#fff;font-family:Calibri, Verdana, Arial, Helvetica, sans-serif;fill:#000000;" text-anchor="end" transform="translate(0,0)" y="385" opacity="1"><tspan>52.0</tspan></text><text x="35" style="color:#000000;cursor:default;font-size:12px;font-weight:normal;background-color:#fff;font-family:Calibri, Verdana, Arial, Helvetica, sans-serif;fill:#000000;" text-anchor="end" transform="translate(0,0)" y="345" opacity="1"><tspan>54.0</tspan></text><text x="35" style="color:#000000;cursor:default;font-size:12px;font-weight:normal;background-color:#fff;font-family:Calibri, Verdana, Arial, Helvetica, sans-serif;fill:#000000;" text-anchor="end" transform="translate(0,0)" y="305" opacity="1"><tspan>56.0</tspan></text><text x="35" style="color:#000000;cursor:default;font-size:12px;font-weight:normal;background-color:#fff;font-family:Calibri, Verdana, Arial, Helvetica, sans-serif;fill:#000000;" text-anchor="end" transform="translate(0,0)" y="265" opacity="1"><tspan>58.0</tspan></text><text x="35" style="color:#000000;cursor:default;font-size:12px;font-weight:normal;background-color:#fff;font-family:Calibri, Verdana, Arial, Helvetica, sans-serif;fill:#000000;" text-anchor="end" transform="translate(0,0)" y="225" opacity="1"><tspan>60.0</tspan></text><text x="35" style="color:#000000;cursor:default;font-size:12px;font-weight:normal;background-color:#fff;font-family:Calibri, Verdana, Arial, Helvetica, sans-serif;fill:#000000;" text-anchor="end" transform="translate(0,0)" y="185" opacity="1"><tspan>62.0</tspan></text><text x="35" style="color:#000000;cursor:default;font-size:12px;font-weight:normal;background-color:#fff;font-family:Calibri, Verdana, Arial, Helvetica, sans-serif;fill:#000000;" text-anchor="end" transform="translate(0,0)" y="145" opacity="1"><tspan>64.0</tspan></text><text x="35" style="color:#000000;cursor:default;font-size:12px;font-weight:normal;background-color:#fff;font-family:Calibri, Verdana, Arial, Helvetica, sans-serif;fill:#000000;" text-anchor="end" transform="translate(0,0)" y="105" opacity="1"><tspan>66.0</tspan></text></g><text x="10" class="highcharts-credits" text-anchor="start" data-z-index="8" style="cursor:default;color:#999999;font-size:9px;fill:#999999;" y="490" aria-label="Chart credits: Hover over chart to view data.Note: Shaded area represents recession, as determined by the National Bureau of Economic Research.Persons whose ethnicity is identified as Hispanic or Latino may be of any race.Source: U.S. Bureau of Labor Statistics." aria-hidden="false"><tspan>Hover over chart to view data.</tspan><tspan x="10" dy="12">Note: Shaded area represents recession, as determined by the National Bureau of Economic Research.</tspan><tspan x="10" dy="12">Persons whose ethnicity is identified as Hispanic or Latino may be of any race.</tspan><tspan x="10" dy="12">Source: U.S. Bureau of Labor Statistics.</tspan></text></svg>